Coordinates
version=1
nRows=16
nColumns=42
inDegrees=yes

Units are S.I. units (second, meters, Newtons, ...)
If the header above contains a line with 'inDegrees', this indicates whether rotational values are in degrees (yes) or radians (no).

endheader
time	pelvis_tilt	pelvis_list	pelvis_rotation	pelvis_tx	pelvis_ty	pelvis_tz	hip_flexion_r	hip_adduction_r	hip_rotation_r	knee_angle_r	knee_adduction_r	knee_angle_r_beta	ankle_angle_r	subtalar_angle_r	mtp_angle_r	hip_flexion_l	hip_adduction_l	hip_rotation_l	knee_angle_l	knee_adduction_l	knee_angle_l_beta	ankle_angle_l	subtalar_angle_l	mtp_angle_l	lumbar_extension	lumbar_bending	lumbar_rotation	arm_flex_r	arm_add_r	arm_rot_r	elbow_flex_r	pro_sup_r	wrist_flex_r	wrist_dev_r	arm_flex_l	arm_add_l	arm_rot_l	elbow_flex_l	pro_sup_l	wrist_flex_l	wrist_dev_l
      1.68000000	     14.61791907	     -5.05777312	     -0.55754127	     -1.05451631	      0.90092601	      0.03561739	    -29.14583198	      2.62904813	    -17.25695111	     13.62756844	      5.27565270	      0.23784594	     16.33105817	     37.86471780	     -7.57766743	     15.41482129	     -6.71287725	    -12.22974586	     26.55849427	     -8.36443725	      0.46353317	     16.18809417	     15.45533877	     -7.57766743	    -32.24836978	     -0.26510274	      0.23276131	     13.28972621	    -29.71410358	      4.63614017	     81.95336946	     90.00000001	      0.00000000	      0.00000000	     -4.36622401	     -6.41377375	    -17.22173400	     33.64586647	     90.00000001	      0.00000000	      0.00000000
      1.69000000	     14.34432714	     -5.03028405	     -0.59836003	     -1.04509714	      0.89992169	      0.03416304	    -29.28646989	      2.34551515	    -17.15292240	     14.05117284	      5.26215580	      0.24523923	     16.18403739	     37.89650099	     -7.57698052	     15.54373240	     -6.44786046	    -12.02607465	     27.53324763	     -8.57796077	      0.48054582	     16.13234907	     15.64838609	     -7.57698052	    -31.87981413	     -0.26410917	      0.23158569	     13.00392090	    -29.66714828	      4.36253848	     82.51727433	     90.00000001	      0.00000000	      0.00000000	     -4.36859036	     -6.48509190	    -17.28157307	     33.71514974	     90.00000001	      0.00000000	      0.00000000
      1.70000000	     14.01275705	     -5.00999796	     -0.57823047	     -1.03567863	      0.89889528	      0.03238221	    -29.32242411	      2.13980184	    -17.15239917	     14.50953712	      5.04484416	      0.25323920	     15.99183866	     38.00849005	     -7.57568877	     15.83564001	     -6.16972152	    -11.83436042	     28.64411374	     -8.82208373	      0.49993410	     16.14262870	     16.06760883	     -7.57568877	    -31.48643207	     -0.18289899	      0.20674655	     12.61037192	    -29.64909036	      3.91287902	     83.01253831	     90.00000001	      0.00000000	      0.00000000	     -4.30867998	     -6.53728021	    -17.29995775	     33.76465381	     90.00000001	      0.00000000	      0.00000000
      1.71000000	     13.70632588	     -4.92477483	     -0.59715061	     -1.02619773	      0.89808474	      0.03061678	    -29.39925310	      1.79357224	    -17.08049070	     14.96115029	      5.00564711	      0.26112133	     15.72381442	     38.06433316	     -7.57492718	     16.04547516	     -5.82651983	    -11.40147838	     29.68524025	     -8.93241228	      0.51810518	     15.94630698	     16.39109039	     -7.57492718	    -31.12753754	     -0.19775336	      0.17525336	     12.21659939	    -29.54875132	      3.61231513	     83.34601853	     90.00000001	      0.00000000	      0.00000000	     -4.22010442	     -6.59697706	    -17.31666464	     33.84569454	     90.00000001	      0.00000000	      0.00000000
      1.72000000	     13.41522070	     -4.80757834	     -0.62839509	     -1.01662906	      0.89743845	      0.02878239	    -29.46149939	      1.42874860	    -17.02265241	     15.44836720	      4.91245891	      0.26962487	     15.38811554	     38.10749211	     -7.57437340	     16.22671052	     -5.45387989	    -10.87455739	     30.72550203	     -8.97788439	      0.53626117	     15.70907242	     16.59752848	     -7.57437340	    -30.79424544	     -0.24620251	      0.15595830	     11.78328925	    -29.41628536	      3.30102600	     83.57390168	     90.00000001	      0.00000000	      0.00000000	     -4.10495334	     -6.66398378	    -17.32341663	     33.91238310	     90.00000001	      0.00000000	      0.00000000
      1.73000000	     13.12289729	     -4.67727388	     -0.58962732	     -1.00694772	      0.89686504	      0.02676189	    -29.49080162	      1.07549972	    -17.17825071	     16.02642266	      4.78050365	      0.27971384	     14.85767298	     38.15382569	     -7.57358454	     16.45555421	     -5.05704884	    -10.27118600	     31.83277308	     -9.02039620	      0.55558670	     15.46461528	     16.53917056	     -7.57358454	    -30.47138860	     -0.26862760	      0.13009486	     11.18816572	    -29.21475804	      2.83377413	     83.79543734	     90.00000001	      0.00000000	      0.00000000	     -3.93241825	     -6.71001663	    -17.28268588	     33.96051319	     90.00000001	      0.00000000	      0.00000000
      1.74000000	     12.91414499	     -4.49990581	     -0.68045749	     -0.99733565	      0.89671765	      0.02492369	    -29.53950906	      0.69863364	    -16.98744296	     16.60005523	      4.50316417	      0.28972562	     14.41841776	     38.17445115	     -7.57326340	     16.45150167	     -4.65813380	     -9.65955196	     32.70885763	     -8.94297917	      0.57087726	     15.20903737	     16.54710002	     -7.57326340	    -30.27291268	     -0.40807367	      0.16419035	     10.70299017	    -29.04484142	      2.66026249	     83.73907386	     90.00000001	      0.00000000	      0.00000000	     -3.69887357	     -6.76630069	    -17.25871988	     34.02521847	     90.00000001	      0.00000000	      0.00000000
      1.75000000	     12.74638753	     -4.08867058	     -0.54290590	     -0.98771074	      0.89678149	      0.02232267	    -29.52642475	     -0.02873044	    -17.87202900	     17.60757708	      4.40394340	      0.30731019	     13.28663572	     38.31835641	     -7.56864880	     16.24524814	     -3.85317041	     -7.79301816	     33.43617998	     -8.23433874	      0.58357143	     14.39015895	     13.52224581	     -7.56864880	    -30.14686980	     -0.65042732	     -0.00745108	      9.94906065	    -28.65455755	      1.95070569	     83.81729897	     90.00000001	      0.00000000	      0.00000000	     -3.38729555	     -6.91241882	    -16.87832577	     33.98913751	     90.00000001	      0.00000000	      0.00000000
      1.76000000	     12.65578080	     -3.91415315	     -0.62999780	     -0.97791392	      0.89708590	      0.02047210	    -29.56225698	     -0.44543383	    -17.77925390	     18.46748849	      4.16108238	      0.32231848	     12.55865801	     38.20931057	     -7.56824310	     16.02097306	     -3.59759854	     -7.40108494	     34.20703977	     -7.99209072	      0.59702547	     14.19052806	     13.42297043	     -7.56824310	    -30.08780871	     -0.78762970	      0.03165287	      9.38899079	    -28.39009081	      1.76448394	     83.54067733	     90.00000001	      0.00000000	      0.00000000	     -3.10453960	     -6.99009873	    -16.88063933	     34.02213940	     90.00000001	      0.00000000	      0.00000000
      1.77000000	     12.66409284	     -3.67322938	     -0.70923774	     -0.96809675	      0.89772198	      0.01852063	    -29.52497547	     -1.01714341	    -18.29807269	     19.77334283	      3.84600314	      0.34510994	     11.09623237	     38.05580838	     -7.56758656	     15.56561763	     -3.32447324	     -7.14260907	     34.75848100	     -7.61300433	      0.60664994	     14.03532778	     12.72776799	     -7.56758656	    -30.15828204	     -0.98363688	      0.09140731	      8.73294937	    -27.95004630	      1.32654059	     83.21493154	     90.00000001	      0.00000000	      0.00000000	     -2.70425620	     -7.05519639	    -16.82011971	     33.98354164	     90.00000001	      0.00000000	      0.00000000
      1.78000000	     12.77909800	     -2.95996661	     -0.69222772	     -0.95843970	      0.89889483	      0.01581829	    -29.48163874	     -2.07943919	    -19.42358027	     21.31555844	      3.32880015	      0.37202668	      9.53378597	     38.29726953	     -7.56305335	     14.56656655	     -2.19259577	     -5.67750678	     34.53032151	     -6.94141880	      0.60266780	     13.13740331	      9.49385998	     -7.56305335	    -30.40148574	     -1.58696887	     -0.15316478	      8.06140531	    -27.49105730	      1.00203926	     82.80843367	     90.00000001	      0.00000000	      0.00000000	     -2.22811287	     -7.20631660	    -16.53952396	     33.98263499	     90.00000001	      0.00000000	      0.00000000
      1.79000000	     12.96056727	     -2.82338050	     -0.75522413	     -0.94870607	      0.90009766	      0.01397835	    -29.41548362	     -2.45902527	    -19.60375683	     22.84400315	      2.80536955	      0.39870307	      8.03938720	     37.99233631	     -7.56249377	     13.75049683	     -2.08862230	     -5.83818792	     34.73808318	     -6.69164457	      0.60629393	     13.26193204	      9.35065981	     -7.56249377	    -30.69740535	     -1.68455375	     -0.11015972	      7.52366842	    -27.05746469	      0.82066488	     82.15090246	     90.00000001	      0.00000000	      0.00000000	     -1.75201358	     -7.27672910	    -16.49056456	     34.02669898	     90.00000001	      0.00000000	      0.00000000
      1.80000000	     13.25355775	     -2.30586273	     -0.83516809	     -0.93883211	      0.90168389	      0.01174622	    -29.28615102	     -3.30037586	    -20.63455426	     24.73506058	      1.93916161	      0.43170825	      5.80750950	     37.93328927	     -7.56124126	     12.55931108	     -1.36761177	     -6.16159300	     34.37790767	     -6.73438747	      0.60000768	     13.26956363	      9.15452727	     -7.56124126	    -31.12326350	     -2.13866829	     -0.22379803	      6.84702030	    -26.57886462	      0.59852101	     81.51339280	     90.00000001	      0.00000000	      0.00000000	     -1.23517803	     -7.42355345	    -16.35079128	     34.04995185	     90.00000001	      0.00000000	      0.00000000
      1.81000000	     13.58126156	     -2.28392056	     -0.73806850	     -0.92938067	      0.90330818	      0.00958871	    -29.10275352	     -3.46904856	    -20.49640136	     26.64272678	      1.29995127	      0.46500330	      4.47620610	     37.60189099	     -7.56087573	     11.48306731	     -1.24942617	     -6.33867678	     34.32774525	     -6.74926131	      0.59913218	     13.49378311	      9.16408983	     -7.56087573	    -31.61833420	     -2.01945726	     -0.28690514	      6.41329788	    -26.11712517	      0.54647096	     80.65977452	     90.00000001	      0.00000000	      0.00000000	     -0.64890638	     -7.48026809	    -16.25729237	     34.18749471	     90.00000001	      0.00000000	      0.00000000
      1.82000000	     13.89613763	     -1.57851082	     -0.85909519	     -0.91953275	      0.90503503	      0.00745319	    -28.56374074	     -4.60611493	    -21.97344148	     29.34707175	      0.04656144	      0.51220303	      2.15729134	     37.41557678	     -7.55889093	     10.10258078	     -0.30165363	     -7.18716377	     33.52682322	     -6.99803086	      0.58515345	     13.66669331	      9.74294284	     -7.55889093	    -32.06608466	     -2.70662031	     -0.52341280	      5.73398818	    -25.52091518	      0.47289708	     79.69850452	     90.00000001	      0.00000000	      0.00000000	     -0.11668019	     -7.71781190	    -15.99044417	     34.29639059	     90.00000001	      0.00000000	      0.00000000
      1.83000000	     14.12128032	     -1.41555195	     -0.87178639	     -0.91022469	      0.90661419	      0.00555259	    -27.74834352	     -4.97804292	    -22.24081409	     32.07616010	     -1.11346918	      0.55983461	      0.54147691	     36.63445427	     -7.55791602	      9.00844445	     -0.01811026	     -7.73960908	     33.14795939	     -7.12080185	      0.57854103	     14.16568601	     10.20293521	     -7.55791602	    -32.47050351	     -2.78941839	     -0.61868546	      5.23879855	    -24.97177036	      0.49103639	     78.58870308	     90.00000001	      0.00000000	      0.00000000	      0.50636881	     -7.84779156	    -15.84346508	     34.40446220	     90.00000001	      0.00000000	      0.00000000
